<?xml version="1.0" encoding="utf-8"?>
<!-- Generator: Adobe Illustrator 21.0.0, SVG Export Plug-In . SVG Version: 6.00 Build 0)  -->
<svg version="1.1" id="Layer_1" xmlns="http://www.w3.org/2000/svg" xmlns:xlink="http://www.w3.org/1999/xlink" x="0px" y="0px"
	 viewBox="0 0 8503.9 8503.9" style="enable-background:new 0 0 8503.9 8503.9;" xml:space="preserve">
<style type="text/css">
	.st0{fill:none;stroke:#FFFFFF;stroke-width:200;stroke-miterlimit:10;}
</style>
<polygon class="st0" points="6777.3,5751.7 8278.9,4244.5 6771.7,2742.9 6769.8,1724.8 5751.9,1726.8 4244.6,225.1 2743,1732.3 
	1724.9,1734.2 1726.9,2752.2 225.3,4259.5 1732.4,5761.1 1734.4,6779.1 2752.4,6777.2 4259.6,8278.8 5761.2,6771.6 6779.2,6769.7 
	"/>
<path class="st0" d="M5991,2789.7c42.9-42,151.9-63.2,327.5-63.5l228.9-0.4l-0.8-443.4l-1706.5,3.2l-1.4-765.9l-405.8,0.7
	l2.1,1209.4l1.1,0l277.5-0.5c173.5-0.3,281.4,20,323.4,60.9c42,40.9,63.2,141.5,63.5,301.7l1.7,869.6l-1699.3,3.1l-1.6-869.7
	c-0.3-158.3,21-258.4,63.8-300.5c42.9-42,151.9-63.2,327.5-63.5l274.6-0.5l-0.8-443.4l-1.4-765.9l-405.8,0.7l1.4,765.9l-1702.7,3.2
	l0.8,443.4l228.9-0.4c173.5-0.3,281.4,20,323.4,60.9c42,40.9,63.2,141.5,63.5,301.7l4.3,2314.4c0.3,160.2-20.6,260.9-62.4,301.9
	c-41.9,41.1-149.7,61.8-323.2,62.1l-228.9,0.4l0.8,446.3l1702.6-3.2l1.4,762.6l405.8-0.7l-1.4-762.6l-0.8-446.3l0-0.6l-319.7,0.6
	c-149.2-3.2-243.4-23.7-282.6-61.8c-43-41.8-64.6-141.9-64.9-300.2l-1.8-972.6l1699.3-3.1l1.9,972.5
	c0.3,160.2-20.6,260.9-62.4,301.9c-38.1,37.4-131,57.8-278,61.5l-323.8,0.6l2.2,1209.4l405.8-0.7l-1.4-762.6l1706.6-3.2l-0.8-446.3
	l-228.9,0.4c-175.5,0.3-284.7-20.4-327.7-62.3c-43-41.8-64.6-141.9-64.9-300.2l-4.3-2314.4C5926.9,2931.9,5948.1,2831.8,5991,2789.7
	z"/>
<polygon class="st0" points="1605.6,3686.7 1734.3,4080.4 2148.7,4079.6 1814,4323.8 1942.6,4717.6 1607.1,4474.7 1272.3,4718.8 
	1399.6,4324.5 1064,4081.6 1478.3,4080.9 "/>
<polygon class="st0" points="6895.6,3676.9 6768.3,4071.1 6354,4071.8 6689.6,4314.7 6562.4,4709 6897.1,4464.9 7232.7,4707.8 
	7103.9,4314 7438.6,4069.9 7024.3,4070.6 "/>
</svg>
