<?xml version="1.0" encoding="utf-8"?>
<!-- Generator: Adobe Illustrator 21.0.0, SVG Export Plug-In . SVG Version: 6.00 Build 0)  -->
<svg version="1.1" id="Capa_1" xmlns="http://www.w3.org/2000/svg" xmlns:xlink="http://www.w3.org/1999/xlink" x="0px" y="0px"
	 viewBox="0 0 52 52" style="enable-background:new 0 0 52 52;" xml:space="preserve">
<path d="M51.2,0.8c-1-1-2.7-1-3.7,0L26,22.3L4.4,0.8c-1-1-2.7-1-3.7,0c-1,1-1,2.7,0,3.7L22.3,26L0.8,47.6c-1,1-1,2.7,0,3.7
	C1.3,51.7,1.9,52,2.6,52s1.3-0.3,1.8-0.8L26,29.7l21.6,21.6c0.5,0.5,1.2,0.8,1.8,0.8s1.3-0.3,1.8-0.8c1-1,1-2.7,0-3.7L29.7,26
	L51.2,4.4C52.3,3.4,52.3,1.8,51.2,0.8z"/>
</svg>
